<?xml version="1.0" encoding="UTF-8" standalone="no"?><svg xmlns="http://www.w3.org/2000/svg" xmlns:xlink="http://www.w3.org/1999/xlink" contentScriptType="application/ecmascript" contentStyleType="text/css" height="437px" preserveAspectRatio="none" style="width:464px;height:437px;" version="1.1" viewBox="0 0 464 437" width="464px" zoomAndPan="magnify"><defs><filter height="300%" id="fbxjn31umi9yx" width="300%" x="-1" y="-1"><feGaussianBlur result="blurOut" stdDeviation="2.0"/><feColorMatrix in="blurOut" result="blurOut2" type="matrix" values="0 0 0 0 0 0 0 0 0 0 0 0 0 0 0 0 0 0 .4 0"/><feOffset dx="4.0" dy="4.0" in="blurOut2" result="blurOut3"/><feBlend in="SourceGraphic" in2="blurOut3" mode="normal"/></filter></defs><g><!--cluster logger--><polygon fill="#FFFFFF" filter="url(#fbxjn31umi9yx)" points="14,16,71,16,78,38.2969,442,38.2969,442,425,14,425,14,16" style="stroke: #000000; stroke-width: 2.0;"/><line style="stroke: #000000; stroke-width: 2.0;" x1="14" x2="78" y1="38.2969" y2="38.2969"/><text fill="#000000" font-family="sans-serif" font-size="14" font-weight="bold" lengthAdjust="spacingAndGlyphs" textLength="51" x="18" y="30.9951">logger</text><!--class LoggerInterface--><rect fill="#FEFECE" filter="url(#fbxjn31umi9yx)" height="124.8281" id="LoggerInterface" style="stroke: #A80036; stroke-width: 1.5;" width="271" x="28.5" y="292"/><ellipse cx="109.25" cy="308" fill="#B4A7E5" rx="11" ry="11" style="stroke: #A80036; stroke-width: 1.0;"/><path d="M105.1719,303.7656 L105.1719,301.6094 L112.5625,301.6094 L112.5625,303.7656 L110.0938,303.7656 L110.0938,311.8438 L112.5625,311.8438 L112.5625,314 L105.1719,314 L105.1719,311.8438 L107.6406,311.8438 L107.6406,303.7656 L105.1719,303.7656 Z "/><text fill="#000000" font-family="sans-serif" font-size="12" font-style="italic" lengthAdjust="spacingAndGlyphs" textLength="101" x="129.75" y="312.1543">LoggerInterface</text><line style="stroke: #A80036; stroke-width: 1.5;" x1="29.5" x2="298.5" y1="324" y2="324"/><line style="stroke: #A80036; stroke-width: 1.5;" x1="29.5" x2="298.5" y1="332" y2="332"/><text fill="#000000" font-family="sans-serif" font-size="11" lengthAdjust="spacingAndGlyphs" textLength="259" x="34.5" y="346.2104">createLogger(level, path, consoleLogEnabled)</text><text fill="#000000" font-family="sans-serif" font-size="11" lengthAdjust="spacingAndGlyphs" textLength="101" x="34.5" y="359.0151">setLogLevel(level)</text><text fill="#000000" font-family="sans-serif" font-size="11" lengthAdjust="spacingAndGlyphs" textLength="115" x="34.5" y="371.8198">setLogFilePath(path)</text><text fill="#000000" font-family="sans-serif" font-size="11" lengthAdjust="spacingAndGlyphs" textLength="112" x="34.5" y="384.6245">enableConsoleLog()</text><text fill="#000000" font-family="sans-serif" font-size="11" lengthAdjust="spacingAndGlyphs" textLength="115" x="34.5" y="397.4292">disableConsoleLog()</text><text fill="#000000" font-family="sans-serif" font-size="11" lengthAdjust="spacingAndGlyphs" textLength="174" x="34.5" y="410.2339">writeLogMessage(level, string)</text><!--class LogLevels--><rect fill="#FEFECE" filter="url(#fbxjn31umi9yx)" height="112.0234" id="LogLevels" style="stroke: #A80036; stroke-width: 1.5;" width="92" x="335" y="298.5"/><ellipse cx="350" cy="314.5" fill="#EB937F" rx="11" ry="11" style="stroke: #A80036; stroke-width: 1.0;"/><path d="M354.1094,320.5 L346.3906,320.5 L346.3906,308.1094 L354.1094,308.1094 L354.1094,310.2656 L348.8438,310.2656 L348.8438,312.9375 L353.6094,312.9375 L353.6094,315.0938 L348.8438,315.0938 L348.8438,318.3438 L354.1094,318.3438 L354.1094,320.5 Z "/><text fill="#000000" font-family="sans-serif" font-size="12" lengthAdjust="spacingAndGlyphs" textLength="60" x="364" y="318.6543">LogLevels</text><line style="stroke: #A80036; stroke-width: 1.5;" x1="336" x2="426" y1="330.5" y2="330.5"/><text fill="#000000" font-family="sans-serif" font-size="11" lengthAdjust="spacingAndGlyphs" textLength="40" x="341" y="344.7104">DEBUG</text><text fill="#000000" font-family="sans-serif" font-size="11" lengthAdjust="spacingAndGlyphs" textLength="26" x="341" y="357.5151">INFO</text><text fill="#000000" font-family="sans-serif" font-size="11" lengthAdjust="spacingAndGlyphs" textLength="51" x="341" y="370.3198">WARNING</text><text fill="#000000" font-family="sans-serif" font-size="11" lengthAdjust="spacingAndGlyphs" textLength="37" x="341" y="383.1245">ERROR</text><text fill="#000000" font-family="sans-serif" font-size="11" lengthAdjust="spacingAndGlyphs" textLength="49" x="341" y="395.9292">CRITICAL</text><line style="stroke: #A80036; stroke-width: 1.5;" x1="336" x2="426" y1="402.5234" y2="402.5234"/><!--class Logger--><rect fill="#FEFECE" filter="url(#fbxjn31umi9yx)" height="188.8516" id="Logger" style="stroke: #A80036; stroke-width: 1.5;" width="412" x="22" y="43"/><ellipse cx="202.25" cy="59" fill="#ADD1B2" rx="11" ry="11" style="stroke: #A80036; stroke-width: 1.0;"/><path d="M205.2188,64.6406 Q204.6406,64.9375 204,65.0781 Q203.3594,65.2344 202.6563,65.2344 Q200.1563,65.2344 198.8281,63.5938 Q197.5156,61.9375 197.5156,58.8125 Q197.5156,55.6875 198.8281,54.0313 Q200.1563,52.375 202.6563,52.375 Q203.3594,52.375 204,52.5313 Q204.6563,52.6875 205.2188,52.9844 L205.2188,55.7031 Q204.5938,55.125 204,54.8594 Q203.4063,54.5781 202.7813,54.5781 Q201.4375,54.5781 200.75,55.6563 Q200.0625,56.7188 200.0625,58.8125 Q200.0625,60.9063 200.75,61.9844 Q201.4375,63.0469 202.7813,63.0469 Q203.4063,63.0469 204,62.7813 Q204.5938,62.5 205.2188,61.9219 L205.2188,64.6406 Z "/><text fill="#000000" font-family="sans-serif" font-size="12" lengthAdjust="spacingAndGlyphs" textLength="43" x="222.75" y="63.1543">Logger</text><line style="stroke: #A80036; stroke-width: 1.5;" x1="23" x2="433" y1="75" y2="75"/><rect fill="none" height="6" style="stroke: #C82930; stroke-width: 1.0;" width="6" x="30" y="83.9023"/><text fill="#000000" font-family="sans-serif" font-size="11" lengthAdjust="spacingAndGlyphs" textLength="173" x="42" y="89.2104">bool isConsoleLoggingEnabled</text><rect fill="none" height="6" style="stroke: #C82930; stroke-width: 1.0;" width="6" x="30" y="96.707"/><text fill="#000000" font-family="sans-serif" font-size="11" lengthAdjust="spacingAndGlyphs" textLength="57" x="42" y="102.0151">file logFile</text><rect fill="none" height="6" style="stroke: #C82930; stroke-width: 1.0;" width="6" x="30" y="109.5117"/><text fill="#000000" font-family="sans-serif" font-size="11" lengthAdjust="spacingAndGlyphs" textLength="117" x="42" y="114.8198">thread loggerThread</text><rect fill="none" height="6" style="stroke: #C82930; stroke-width: 1.0;" width="6" x="30" y="122.3164"/><text fill="#000000" font-family="sans-serif" font-size="11" lengthAdjust="spacingAndGlyphs" textLength="112" x="42" y="127.6245">queue loggerQueue</text><rect fill="none" height="6" style="stroke: #C82930; stroke-width: 1.0;" width="6" x="30" y="135.1211"/><text fill="#000000" font-family="sans-serif" font-size="11" lengthAdjust="spacingAndGlyphs" textLength="102" x="42" y="140.4292">map levelMapping</text><line style="stroke: #A80036; stroke-width: 1.5;" x1="23" x2="433" y1="147.0234" y2="147.0234"/><ellipse cx="33" cy="158.9258" fill="#84BE84" rx="3" ry="3" style="stroke: #038048; stroke-width: 1.0;"/><text fill="#000000" font-family="sans-serif" font-size="11" lengthAdjust="spacingAndGlyphs" textLength="386" x="42" y="161.2339">createLogger(LogLevels level, String path, Bool consoleLogEnabled)</text><ellipse cx="33" cy="171.7305" fill="#84BE84" rx="3" ry="3" style="stroke: #038048; stroke-width: 1.0;"/><text fill="#000000" font-family="sans-serif" font-size="11" lengthAdjust="spacingAndGlyphs" textLength="161" x="42" y="174.0386">setLogLevel(LogLevels level)</text><ellipse cx="33" cy="184.5352" fill="#84BE84" rx="3" ry="3" style="stroke: #038048; stroke-width: 1.0;"/><text fill="#000000" font-family="sans-serif" font-size="11" lengthAdjust="spacingAndGlyphs" textLength="115" x="42" y="186.8433">setLogFilePath(path)</text><ellipse cx="33" cy="197.3398" fill="#84BE84" rx="3" ry="3" style="stroke: #038048; stroke-width: 1.0;"/><text fill="#000000" font-family="sans-serif" font-size="11" lengthAdjust="spacingAndGlyphs" textLength="112" x="42" y="199.6479">enableConsoleLog()</text><ellipse cx="33" cy="210.1445" fill="#84BE84" rx="3" ry="3" style="stroke: #038048; stroke-width: 1.0;"/><text fill="#000000" font-family="sans-serif" font-size="11" lengthAdjust="spacingAndGlyphs" textLength="115" x="42" y="212.4526">disableConsoleLog()</text><ellipse cx="33" cy="222.9492" fill="#84BE84" rx="3" ry="3" style="stroke: #038048; stroke-width: 1.0;"/><text fill="#000000" font-family="sans-serif" font-size="11" lengthAdjust="spacingAndGlyphs" textLength="263" x="42" y="225.2573">writeLogMessage(LogLevels level, arguments)</text><!--link Logger to LoggerInterface--><path d="M200.1148,232.0481 C196.1556,245.4726 192.1108,259.1868 188.2285,272.3503 " fill="none" id="Logger-LoggerInterface" style="stroke: #A80036; stroke-width: 1.0;"/><polygon fill="none" points="194.8652,274.5932,182.4933,291.796,181.437,270.6327,194.8652,274.5932" style="stroke: #A80036; stroke-width: 1.0;"/><!--link Logger to LogLevels--><path d="M294.6629,232.0481 C310.6075,254.6623 327.1318,278.0986 341.4028,298.3393 " fill="none" id="Logger-LogLevels" style="stroke: #A80036; stroke-width: 1.0;"/><!--
@startuml

package "logger" {

interface "LoggerInterface" {
  createLogger(level, path, consoleLogEnabled)
  setLogLevel(level)
  setLogFilePath(path)
  enableConsoleLog()
  disableConsoleLog()
  writeLogMessage(level, string)
}


  enum "LogLevels" {
    DEBUG
    INFO
    WARNING
    ERROR
    CRITICAL
  }

  class "Logger" {
    - bool isConsoleLoggingEnabled
    - file logFile
    - thread loggerThread
    - queue loggerQueue
    - map levelMapping

    + createLogger(LogLevels level, String path, Bool consoleLogEnabled)
    + setLogLevel(LogLevels level)
    + setLogFilePath(path)
    + enableConsoleLog()
    + disableConsoleLog()
    + writeLogMessage(LogLevels level, arguments)
  }
}

"Logger" - -|> "LoggerInterface"
"Logger" - - "LogLevels"

@enduml

PlantUML version 1.2017.15(Mon Jul 03 18:45:34 CEST 2017)
(GPL source distribution)
Java Runtime: OpenJDK Runtime Environment
JVM: OpenJDK 64-Bit Server VM
Java Version: 10.0.2+13-Ubuntu-1ubuntu0.18.04.4
Operating System: Linux
OS Version: 4.15.0-42-generic
Default Encoding: UTF-8
Language: en
Country: US
--></g></svg>